<?xml version="1.0" encoding="iso-8859-1"?>
<!-- Generator: Adobe Illustrator 16.0.0, SVG Export Plug-In . SVG Version: 6.00 Build 0)  -->
<!DOCTYPE svg PUBLIC "-//W3C//DTD SVG 1.1//EN" "http://www.w3.org/Graphics/SVG/1.1/DTD/svg11.dtd">
<svg xmlns="http://www.w3.org/2000/svg" xmlns:xlink="http://www.w3.org/1999/xlink" version="1.1" id="Capa_1" x="0px" y="0px" width="512px" height="512px" viewBox="0 0 555.815 555.815" style="enable-background:new 0 0 555.815 555.815;" xml:space="preserve">
<g>
	<g>
		<path d="M7.958,410.522c2.159,3.154,4.48,3.818,6.051,3.818c1.326,0,5.712-0.566,6.532-7.846    c4.374-38.707,53.668-85.807,119.87-114.537c20.51-8.898,41.131-15.471,61.425-19.584c-0.612,0.286-1.22,0.542-1.808,0.767    c-46.634,17.764-88.018,45.254-113.538,75.43c-23.566,27.867-31.396,55.084-22.044,76.635s34.578,34.428,71.025,36.248    c2.839,0.143,5.781,0.211,8.743,0.211c2.917,0,5.932-0.068,8.968-0.207c2.028-0.09,6.777-0.307,7.291-4.432    c0.518-4.133-4.084-5.527-6.051-6.119c-19.306-5.844-31.75-16.5-35.981-30.812c-5.296-17.908,2.632-40.584,22.31-63.855    c12.17-14.391,27.964-28.084,46.944-40.707c-0.612,1.229-1.497,2.623-2.656,3.9c-26.708,29.475-35.961,58.283-26.051,81.119    c10.057,23.174,39.205,36.467,79.972,36.467c33.423,0,72.396-8.928,109.74-25.133c6.867-2.979,13.746-6.246,20.445-9.711    c2.443-1.26,5.789-2.99,4.929-6.531c-0.392-1.611-1.881-3.24-4.329-3.24c-0.689,0-1.73,0.102-4.223,0.85    c-24.651,7.4-49.091,11.312-70.67,11.312c-37.345,0-63.754-11.492-72.453-31.537c-3.538-8.156-4.08-17.484-1.612-27.717    c0.519-2.141,2.893-3.301,4.864-3.301c0.229,0,0.453,0.018,0.681,0.045c2.819,0.385,6.406,3.068,8.16,6.117    c10.816,18.742,35.194,29.988,68.634,31.66c2.941,0.146,5.977,0.221,9.021,0.221c72.2,0,163.972-41.641,208.928-94.799    c3.318-3.926,6.391-7.94,9.131-11.93c1.523-2.219,3.037-4.802,1.686-7.364c-0.754-1.432-2.244-2.322-3.889-2.326    c-1.623,0-3.174,0.775-5.531,2.762c-48.001,40.491-121.719,68.772-179.268,68.772c-2.908,0-5.806-0.068-8.608-0.211    c-12.342-0.617-23.342-2.58-32.729-5.836c0.877-0.363,1.75-0.738,2.627-1.117c1.661-0.723,3.301-1.461,4.917-2.215    c1.729-0.809,6.711-1.705,11.098-1.705h0.559c33.424,0,72.347-8.904,109.597-25.068c41.103-17.838,76.354-42.579,99.262-69.666    c23.566-27.867,31.396-55.08,22.045-76.635c-1.113-2.562-2.492-5.059-4.105-7.417c-2.158-3.158-4.482-3.819-6.051-3.819    c-1.32,0-5.711,0.567-6.531,7.846c-4.219,37.344-49.438,82.048-112.514,111.241c-4.035,1.869-10.665,4.745-14.786,6.414    c-12.962,5.255-26.096,9.625-39.106,13.011c2.558-2.644,5.851-5.198,8.29-6.324c38.047-17.544,70.78-41.13,92.168-66.422    c23.565-27.867,31.396-55.084,22.044-76.635c-9.352-21.55-34.578-34.427-71.024-36.247c-2.836-0.143-5.777-0.212-8.748-0.212    c-2.913,0-5.932,0.07-8.968,0.208c-2.027,0.089-6.776,0.306-7.291,4.431c-0.518,4.133,4.084,5.528,6.047,6.12    c19.307,5.842,31.751,16.5,35.981,30.812c5.296,17.907-2.632,40.584-22.31,63.856c-10.114,11.963-22.819,23.521-37.76,34.358    c-1.037,0.75-1.983,1.416-2.808,1.983c-0.176-0.277-0.359-0.551-0.547-0.82c-0.073-0.318,0.151-2.423,2.146-4.843    c19.608-23.778,27.72-46.761,23.46-66.472c-1.057-4.892-4.235-12.219-7.091-16.34c-12.791-18.474-39.649-28.646-75.615-28.649    c-33.419,0-72.396,8.923-109.744,25.128c-6.862,2.979-13.741,6.247-20.445,9.71c-2.444,1.265-5.79,2.991-4.929,6.532    c0.392,1.612,1.881,3.24,4.329,3.24c0.689,0,1.73-0.103,4.223-0.849c24.651-7.401,49.086-11.314,70.67-11.314    c37.344,0,63.754,11.493,72.453,31.538c3.836,8.841,4.162,19,0.976,30.205c-0.719,2.517-3.448,4.467-5.32,4.467    c-1.555-0.012-4.056-1.991-5.427-5.165c-9.322-21.6-34.521-34.497-70.959-36.316c-2.942-0.147-5.978-0.221-9.021-0.221    c-72.2,0-163.971,41.641-208.929,94.799c-3.321,3.929-6.394,7.944-9.131,11.929c-1.522,2.221-3.036,4.803-1.685,7.365    c0.754,1.432,2.244,2.322,3.892,2.322c1.624,0,3.174-0.775,5.528-2.764c48.001-40.489,121.719-68.772,179.267-68.772    c2.909,0,5.806,0.069,8.609,0.212c17.711,0.885,32.432,4.463,43.754,10.637c-0.661,0.277-1.322,0.563-1.987,0.849    c-0.583,0.253-1.159,0.506-1.734,0.767c-0.188,0.02-0.571,0.049-1.252,0.049c-1.677,0-4.219-0.171-6.981-0.474    c-5.814-0.636-11.971-0.958-18.307-0.958c-33.395,0-72.306,8.902-109.568,25.076C44.947,291.583-8.383,350.815,1.087,394.569    C2.148,399.368,5.22,406.516,7.958,410.522z M269.567,248.889c34.766-15.084,68.997-13.375,76.46,3.823    c7.462,17.197-14.668,43.367-49.434,58.451c-34.766,15.084-68.993,13.373-76.459-3.824    C212.672,290.147,234.806,263.977,269.567,248.889z" fill="#D80027"/>
	</g>
</g>
<g>
</g>
<g>
</g>
<g>
</g>
<g>
</g>
<g>
</g>
<g>
</g>
<g>
</g>
<g>
</g>
<g>
</g>
<g>
</g>
<g>
</g>
<g>
</g>
<g>
</g>
<g>
</g>
<g>
</g>
</svg>
